<svg xmlns="http://www.w3.org/2000/svg" width="32" height="32" viewBox="0 0 32 32"><path fill="#ffff" d="M 16 0 C 7.2 0 0 7.2 0 16 C 0 23.1 4.6 29.1 10.9 31.2 C 11.7 31.3 12 30.8 12 30.4 C 12 30 12 28.8 12 27.4 C 8 28.2 7 26.5 6.6 25.6 C 6.5 25.1 5.7 23.7 5 23.3 C 4.4 23 3.6 22.3 5 22.2 C 6.2 22.2 7.1 23.4 7.4 23.9 C 8.9 26.3 11.2 25.6 12.1 25.2 C 12.2 24.2 12.7 23.5 13.1 23.1 C 9.6 22.7 5.8 21.3 5.8 15.2 C 5.8 13.4 6.5 12 7.5 10.9 C 7.3 10.5 6.8 8.8 7.6 6.6 C 7.6 6.6 9 6.2 12 8.3 C 13.3 7.9 14.7 7.7 16 7.7 C 17.4 7.7 18.8 7.9 20 8.3 C 23.1 6.2 24.4 6.6 24.4 6.6 C 25.3 8.8 24.8 10.5 24.6 10.9 C 25.6 12 26.2 13.4 26.2 15.2 C 26.2 21.3 22.5 22.7 18.9 23.1 C 19.5 23.6 20 24.5 20 26 C 20 28.2 20 29.9 20 30.4 C 20 30.8 20.3 31.3 21.1 31.2 C 27.4 29.1 32 23.1 32 16 C 32 7.2 24.8 0 16 0 V 0 Z"/></svg>