<svg viewBox="-16 -32 880 192" width="880" height="192" xmlns="http://www.w3.org/2000/svg"><desc>Generated with https://github.com/Platane/snk</desc><style>:root{--cb:#1b1f230a;--cs:purple;--ce:#ebedf0;--c0:#ebedf0;--c1:#9be9a8;--c2:#40c463;--c3:#30a14e;--c4:#216e39}.c{shape-rendering:geometricPrecision;fill:var(--ce);stroke-width:1px;stroke:var(--cb);animation:none 33700ms linear infinite;width:12px;height:12px}@keyframes c0{1.77%{fill:var(--c1)}1.79%,100%{fill:var(--ce)}}.c.c0{fill:var(--c1);animation-name:c0}@keyframes c1{54.29%{fill:var(--c2)}54.31%,100%{fill:var(--ce)}}.c.c1{fill:var(--c2);animation-name:c1}@keyframes c2{55.78%{fill:var(--c2)}55.8%,100%{fill:var(--ce)}}.c.c2{fill:var(--c2);animation-name:c2}@keyframes c3{3.25%{fill:var(--c1)}3.27%,100%{fill:var(--ce)}}.c.c3{fill:var(--c1);animation-name:c3}@keyframes c4{10.38%{fill:var(--c1)}10.4%,100%{fill:var(--ce)}}.c.c4{fill:var(--c1);animation-name:c4}@keyframes c5{10.08%{fill:var(--c1)}10.1%,100%{fill:var(--ce)}}.c.c5{fill:var(--c1);animation-name:c5}@keyframes c6{63.49%{fill:var(--c3)}63.51%,100%{fill:var(--ce)}}.c.c6{fill:var(--c3);animation-name:c6}@keyframes c7{93.76%{fill:var(--c4)}93.78%,100%{fill:var(--ce)}}.c.c7{fill:var(--c4);animation-name:c7}@keyframes c8{95.24%{fill:var(--c4)}95.26%,100%{fill:var(--ce)}}.c.c8{fill:var(--c4);animation-name:c8}@keyframes c9{59.34%{fill:var(--c3)}59.36%,100%{fill:var(--ce)}}.c.c9{fill:var(--c3);animation-name:c9}@keyframes ca{59.04%{fill:var(--c1)}59.06%,100%{fill:var(--ce)}}.c.ca{fill:var(--c1);animation-name:ca}@keyframes cb{95.84%{fill:var(--c4)}95.86%,100%{fill:var(--ce)}}.c.cb{fill:var(--c4);animation-name:cb}@keyframes cc{93.17%{fill:var(--c4)}93.19%,100%{fill:var(--ce)}}.c.cc{fill:var(--c4);animation-name:cc}@keyframes cd{4.44%{fill:var(--c1)}4.46%,100%{fill:var(--ce)}}.c.cd{fill:var(--c1);animation-name:cd}@keyframes ce{48.06%{fill:var(--c2)}48.08%,100%{fill:var(--ce)}}.c.ce{fill:var(--c2);animation-name:ce}@keyframes cf{47.76%{fill:var(--c2)}47.78%,100%{fill:var(--ce)}}.c.cf{fill:var(--c2);animation-name:cf}@keyframes cg{8.89%{fill:var(--c1)}8.91%,100%{fill:var(--ce)}}.c.cg{fill:var(--c1);animation-name:cg}@keyframes ch{47.17%{fill:var(--c2)}47.19%,100%{fill:var(--ce)}}.c.ch{fill:var(--c2);animation-name:ch}@keyframes ci{59.93%{fill:var(--c3)}59.95%,100%{fill:var(--ce)}}.c.ci{fill:var(--c3);animation-name:ci}@keyframes cj{96.43%{fill:var(--c4)}96.45%,100%{fill:var(--ce)}}.c.cj{fill:var(--c4);animation-name:cj}@keyframes ck{8.6%{fill:var(--c1)}8.62%,100%{fill:var(--ce)}}.c.ck{fill:var(--c1);animation-name:ck}@keyframes cl{46.87%{fill:var(--c1)}46.89%,100%{fill:var(--ce)}}.c.cl{fill:var(--c1);animation-name:cl}@keyframes cm{50.73%{fill:var(--c2)}50.75%,100%{fill:var(--ce)}}.c.cm{fill:var(--c2);animation-name:cm}@keyframes cn{5.33%{fill:var(--c1)}5.35%,100%{fill:var(--ce)}}.c.cn{fill:var(--c1);animation-name:cn}@keyframes co{60.82%{fill:var(--c3)}60.84%,100%{fill:var(--ce)}}.c.co{fill:var(--c3);animation-name:co}@keyframes cp{5.92%{fill:var(--c1)}5.94%,100%{fill:var(--ce)}}.c.cp{fill:var(--c1);animation-name:cp}@keyframes cq{61.41%{fill:var(--c3)}61.43%,100%{fill:var(--ce)}}.c.cq{fill:var(--c3);animation-name:cq}@keyframes cr{6.52%{fill:var(--c1)}6.54%,100%{fill:var(--ce)}}.c.cr{fill:var(--c1);animation-name:cr}@keyframes cs{6.81%{fill:var(--c1)}6.83%,100%{fill:var(--ce)}}.c.cs{fill:var(--c1);animation-name:cs}@keyframes ct{17.5%{fill:var(--c1)}17.52%,100%{fill:var(--ce)}}.c.ct{fill:var(--c1);animation-name:ct}@keyframes cu{18.98%{fill:var(--c1)}19%,100%{fill:var(--ce)}}.c.cu{fill:var(--c1);animation-name:cu}@keyframes cv{23.73%{fill:var(--c1)}23.75%,100%{fill:var(--ce)}}.c.cv{fill:var(--c1);animation-name:cv}@keyframes cw{72.1%{fill:var(--c4)}72.12%,100%{fill:var(--ce)}}.c.cw{fill:var(--c4);animation-name:cw}@keyframes cx{72.69%{fill:var(--c4)}72.71%,100%{fill:var(--ce)}}.c.cx{fill:var(--c4);animation-name:cx}@keyframes cy{20.17%{fill:var(--c1)}20.19%,100%{fill:var(--ce)}}.c.cy{fill:var(--c1);animation-name:cy}@keyframes cz{71.5%{fill:var(--c3)}71.52%,100%{fill:var(--ce)}}.c.cz{fill:var(--c3);animation-name:cz}@keyframes c10{21.65%{fill:var(--c1)}21.67%,100%{fill:var(--ce)}}.c.c10{fill:var(--c1);animation-name:c10}@keyframes c11{22.25%{fill:var(--c1)}22.27%,100%{fill:var(--ce)}}.c.c11{fill:var(--c1);animation-name:c11}@keyframes c12{27.29%{fill:var(--c1)}27.31%,100%{fill:var(--ce)}}.c.c12{fill:var(--c1);animation-name:c12}@keyframes c13{30.85%{fill:var(--c1)}30.87%,100%{fill:var(--ce)}}.c.c13{fill:var(--c1);animation-name:c13}@keyframes c14{34.11%{fill:var(--c1)}34.13%,100%{fill:var(--ce)}}.c.c14{fill:var(--c1);animation-name:c14}@keyframes c15{32.33%{fill:var(--c1)}32.35%,100%{fill:var(--ce)}}.c.c15{fill:var(--c1);animation-name:c15}@keyframes c16{32.04%{fill:var(--c1)}32.06%,100%{fill:var(--ce)}}.c.c16{fill:var(--c1);animation-name:c16}@keyframes c17{33.22%{fill:var(--c1)}33.24%,100%{fill:var(--ce)}}.c.c17{fill:var(--c1);animation-name:c17}@keyframes c18{79.22%{fill:var(--c4)}79.24%,100%{fill:var(--ce)}}.c.c18{fill:var(--c4);animation-name:c18}@keyframes c19{79.52%{fill:var(--c4)}79.54%,100%{fill:var(--ce)}}.c.c19{fill:var(--c4);animation-name:c19}.u{transform-origin:0 0;transform:scale(0,1);animation:none linear 33700ms infinite}@keyframes u0{1.77%{transform:scale(0.000,1)}1.79%,3.25%{transform:scale(0.042,1)}3.27%,4.44%{transform:scale(0.083,1)}4.46%,5.33%{transform:scale(0.125,1)}5.35%,5.92%{transform:scale(0.167,1)}5.94%,6.52%{transform:scale(0.208,1)}6.54%,6.81%{transform:scale(0.250,1)}6.83%,8.6%{transform:scale(0.292,1)}8.62%,8.89%{transform:scale(0.333,1)}8.91%,10.08%{transform:scale(0.375,1)}10.1%,10.38%{transform:scale(0.417,1)}10.4%,17.5%{transform:scale(0.458,1)}17.52%,18.98%{transform:scale(0.500,1)}19%,20.17%{transform:scale(0.542,1)}20.19%,21.65%{transform:scale(0.583,1)}21.67%,22.25%{transform:scale(0.625,1)}22.27%,23.73%{transform:scale(0.667,1)}23.75%,27.29%{transform:scale(0.708,1)}27.31%,30.85%{transform:scale(0.750,1)}30.87%,32.04%{transform:scale(0.792,1)}32.06%,32.33%{transform:scale(0.833,1)}32.35%,33.22%{transform:scale(0.875,1)}33.24%,34.11%{transform:scale(0.917,1)}34.13%,46.87%{transform:scale(0.958,1)}46.89%,100%{transform:scale(1.000,1)}}.u.u0{fill:var(--c1);animation-name:u0;transform-origin:0.0px 0}@keyframes u1{47.17%{transform:scale(0.000,1)}47.19%,47.76%{transform:scale(0.167,1)}47.78%,48.06%{transform:scale(0.333,1)}48.08%,50.73%{transform:scale(0.500,1)}50.75%,54.29%{transform:scale(0.667,1)}54.31%,55.78%{transform:scale(0.833,1)}55.8%,100%{transform:scale(1.000,1)}}.u.u1{fill:var(--c2);animation-name:u1;transform-origin:442.4px 0}@keyframes u2{59.04%{transform:scale(0.000,1)}59.06%,100%{transform:scale(1.000,1)}}.u.u2{fill:var(--c1);animation-name:u2;transform-origin:553.0px 0}@keyframes u3{59.34%{transform:scale(0.000,1)}59.36%,59.93%{transform:scale(0.167,1)}59.95%,60.82%{transform:scale(0.333,1)}60.84%,61.41%{transform:scale(0.500,1)}61.43%,63.49%{transform:scale(0.667,1)}63.51%,71.5%{transform:scale(0.833,1)}71.52%,100%{transform:scale(1.000,1)}}.u.u3{fill:var(--c3);animation-name:u3;transform-origin:571.5px 0}@keyframes u4{72.1%{transform:scale(0.000,1)}72.12%,72.69%{transform:scale(0.111,1)}72.71%,79.22%{transform:scale(0.222,1)}79.24%,79.52%{transform:scale(0.333,1)}79.54%,93.17%{transform:scale(0.444,1)}93.19%,93.76%{transform:scale(0.556,1)}93.78%,95.24%{transform:scale(0.667,1)}95.26%,95.84%{transform:scale(0.778,1)}95.86%,96.43%{transform:scale(0.889,1)}96.45%,100%{transform:scale(1.000,1)}}.u.u4{fill:var(--c4);animation-name:u4;transform-origin:682.1px 0}.s{shape-rendering:geometricPrecision;fill:var(--cs);animation:none linear 33700ms infinite}@keyframes s0{0%,99.7%{transform:translate(0px,-16px)}1.78%,54.6%{transform:translate(0px,80px)}2.97%{transform:translate(64px,80px)}3.26%{transform:translate(64px,96px)}5.04%{transform:translate(160px,96px)}5.34%,51.04%{transform:translate(160px,80px)}5.64%{transform:translate(176px,80px)}5.93%,60.53%{transform:translate(176px,64px)}6.23%{transform:translate(192px,64px)}6.53%,61.13%{transform:translate(192px,48px)}6.82%{transform:translate(208px,48px)}7.42%{transform:translate(208px,16px)}8.31%,49.85%{transform:translate(160px,16px)}8.61%,46.59%{transform:translate(160px,32px)}9.79%,63.2%{transform:translate(96px,32px)}10.09%{transform:translate(96px,16px)}10.39%{transform:translate(80px,16px)}11.87%{transform:translate(80px,96px)}18.4%{transform:translate(432px,96px)}18.99%{transform:translate(432px,64px)}19.58%{transform:translate(464px,64px)}19.88%{transform:translate(464px,80px)}20.77%{transform:translate(512px,80px)}21.66%{transform:translate(512px,32px)}21.96%{transform:translate(528px,32px)}22.55%{transform:translate(528px,0px)}23.44%,40.06%{transform:translate(480px,0px)}23.74%,40.36%,71.81%{transform:translate(480px,16px)}24.04%{transform:translate(464px,16px)}24.63%{transform:translate(464px,48px)}26.41%{transform:translate(560px,48px)}27.3%{transform:translate(560px,96px)}31.75%{transform:translate(800px,96px)}32.34%{transform:translate(800px,64px)}32.64%,78.93%{transform:translate(816px,64px)}33.53%{transform:translate(816px,16px)}39.17%{transform:translate(512px,16px)}39.47%{transform:translate(512px,0px)}45.99%,49.55%{transform:translate(176px,16px)}46.29%{transform:translate(176px,32px)}46.88%{transform:translate(160px,48px)}47.18%{transform:translate(144px,48px)}48.37%{transform:translate(144px,-16px)}48.96%{transform:translate(176px,-16px)}51.34%{transform:translate(144px,80px)}51.63%{transform:translate(144px,96px)}54.3%{transform:translate(0px,96px)}54.9%{transform:translate(16px,80px)}55.79%{transform:translate(16px,32px)}56.08%{transform:translate(32px,32px)}57.27%{transform:translate(32px,96px)}58.75%{transform:translate(112px,96px)}59.35%,94.36%{transform:translate(112px,64px)}60.83%{transform:translate(176px,48px)}61.42%{transform:translate(192px,32px)}63.5%{transform:translate(96px,48px)}70.92%{transform:translate(496px,48px)}71.51%{transform:translate(496px,16px)}72.7%{transform:translate(480px,64px)}79.23%{transform:translate(816px,80px)}79.53%{transform:translate(832px,80px)}79.82%{transform:translate(832px,64px)}92.88%{transform:translate(128px,64px)}93.18%{transform:translate(128px,80px)}93.77%{transform:translate(96px,80px)}94.07%{transform:translate(96px,64px)}95.25%{transform:translate(112px,16px)}95.55%{transform:translate(128px,16px)}95.85%{transform:translate(128px,0px)}96.44%{transform:translate(160px,0px)}96.74%{transform:translate(160px,-16px)}}.s.s0{transform:translate(0px,-16px);animation-name:s0}@keyframes s1{0%,99.7%{transform:translate(16px,-16px)}0.3%{transform:translate(0px,-16px)}2.08%,54.9%{transform:translate(0px,80px)}3.26%{transform:translate(64px,80px)}3.56%{transform:translate(64px,96px)}5.34%{transform:translate(160px,96px)}5.64%,51.34%{transform:translate(160px,80px)}5.93%{transform:translate(176px,80px)}6.23%,60.83%{transform:translate(176px,64px)}6.53%{transform:translate(192px,64px)}6.82%,61.42%{transform:translate(192px,48px)}7.12%{transform:translate(208px,48px)}7.72%{transform:translate(208px,16px)}8.61%,50.15%{transform:translate(160px,16px)}8.9%,46.88%{transform:translate(160px,32px)}10.09%,63.5%{transform:translate(96px,32px)}10.39%{transform:translate(96px,16px)}10.68%{transform:translate(80px,16px)}12.17%{transform:translate(80px,96px)}18.69%{transform:translate(432px,96px)}19.29%{transform:translate(432px,64px)}19.88%{transform:translate(464px,64px)}20.18%{transform:translate(464px,80px)}21.07%{transform:translate(512px,80px)}21.96%{transform:translate(512px,32px)}22.26%{transform:translate(528px,32px)}22.85%{transform:translate(528px,0px)}23.74%,40.36%{transform:translate(480px,0px)}24.04%,40.65%,72.11%{transform:translate(480px,16px)}24.33%{transform:translate(464px,16px)}24.93%{transform:translate(464px,48px)}26.71%{transform:translate(560px,48px)}27.6%{transform:translate(560px,96px)}32.05%{transform:translate(800px,96px)}32.64%{transform:translate(800px,64px)}32.94%,79.23%{transform:translate(816px,64px)}33.83%{transform:translate(816px,16px)}39.47%{transform:translate(512px,16px)}39.76%{transform:translate(512px,0px)}46.29%,49.85%{transform:translate(176px,16px)}46.59%{transform:translate(176px,32px)}47.18%{transform:translate(160px,48px)}47.48%{transform:translate(144px,48px)}48.66%{transform:translate(144px,-16px)}49.26%{transform:translate(176px,-16px)}51.63%{transform:translate(144px,80px)}51.93%{transform:translate(144px,96px)}54.6%{transform:translate(0px,96px)}55.19%{transform:translate(16px,80px)}56.08%{transform:translate(16px,32px)}56.38%{transform:translate(32px,32px)}57.57%{transform:translate(32px,96px)}59.05%{transform:translate(112px,96px)}59.64%,94.66%{transform:translate(112px,64px)}61.13%{transform:translate(176px,48px)}61.72%{transform:translate(192px,32px)}63.8%{transform:translate(96px,48px)}71.22%{transform:translate(496px,48px)}71.81%{transform:translate(496px,16px)}73%{transform:translate(480px,64px)}79.53%{transform:translate(816px,80px)}79.82%{transform:translate(832px,80px)}80.12%{transform:translate(832px,64px)}93.18%{transform:translate(128px,64px)}93.47%{transform:translate(128px,80px)}94.07%{transform:translate(96px,80px)}94.36%{transform:translate(96px,64px)}95.55%{transform:translate(112px,16px)}95.85%{transform:translate(128px,16px)}96.14%{transform:translate(128px,0px)}96.74%{transform:translate(160px,0px)}97.03%{transform:translate(160px,-16px)}}.s.s1{transform:translate(16px,-16px);animation-name:s1}@keyframes s2{0%,99.7%{transform:translate(32px,-16px)}0.59%{transform:translate(0px,-16px)}2.37%,55.19%{transform:translate(0px,80px)}3.56%{transform:translate(64px,80px)}3.86%{transform:translate(64px,96px)}5.64%{transform:translate(160px,96px)}5.93%,51.63%{transform:translate(160px,80px)}6.23%{transform:translate(176px,80px)}6.53%,61.13%{transform:translate(176px,64px)}6.82%{transform:translate(192px,64px)}7.12%,61.72%{transform:translate(192px,48px)}7.42%{transform:translate(208px,48px)}8.01%{transform:translate(208px,16px)}8.9%,50.45%{transform:translate(160px,16px)}9.2%,47.18%{transform:translate(160px,32px)}10.39%,63.8%{transform:translate(96px,32px)}10.68%{transform:translate(96px,16px)}10.98%{transform:translate(80px,16px)}12.46%{transform:translate(80px,96px)}18.99%{transform:translate(432px,96px)}19.58%{transform:translate(432px,64px)}20.18%{transform:translate(464px,64px)}20.47%{transform:translate(464px,80px)}21.36%{transform:translate(512px,80px)}22.26%{transform:translate(512px,32px)}22.55%{transform:translate(528px,32px)}23.15%{transform:translate(528px,0px)}24.04%,40.65%{transform:translate(480px,0px)}24.33%,40.95%,72.4%{transform:translate(480px,16px)}24.63%{transform:translate(464px,16px)}25.22%{transform:translate(464px,48px)}27%{transform:translate(560px,48px)}27.89%{transform:translate(560px,96px)}32.34%{transform:translate(800px,96px)}32.94%{transform:translate(800px,64px)}33.23%,79.53%{transform:translate(816px,64px)}34.12%{transform:translate(816px,16px)}39.76%{transform:translate(512px,16px)}40.06%{transform:translate(512px,0px)}46.59%,50.15%{transform:translate(176px,16px)}46.88%{transform:translate(176px,32px)}47.48%{transform:translate(160px,48px)}47.77%{transform:translate(144px,48px)}48.96%{transform:translate(144px,-16px)}49.55%{transform:translate(176px,-16px)}51.93%{transform:translate(144px,80px)}52.23%{transform:translate(144px,96px)}54.9%{transform:translate(0px,96px)}55.49%{transform:translate(16px,80px)}56.38%{transform:translate(16px,32px)}56.68%{transform:translate(32px,32px)}57.86%{transform:translate(32px,96px)}59.35%{transform:translate(112px,96px)}59.94%,94.96%{transform:translate(112px,64px)}61.42%{transform:translate(176px,48px)}62.02%{transform:translate(192px,32px)}64.09%{transform:translate(96px,48px)}71.51%{transform:translate(496px,48px)}72.11%{transform:translate(496px,16px)}73.29%{transform:translate(480px,64px)}79.82%{transform:translate(816px,80px)}80.12%{transform:translate(832px,80px)}80.42%{transform:translate(832px,64px)}93.47%{transform:translate(128px,64px)}93.77%{transform:translate(128px,80px)}94.36%{transform:translate(96px,80px)}94.66%{transform:translate(96px,64px)}95.85%{transform:translate(112px,16px)}96.14%{transform:translate(128px,16px)}96.44%{transform:translate(128px,0px)}97.03%{transform:translate(160px,0px)}97.33%{transform:translate(160px,-16px)}}.s.s2{transform:translate(32px,-16px);animation-name:s2}@keyframes s3{0%,99.7%{transform:translate(48px,-16px)}0.89%{transform:translate(0px,-16px)}2.67%,55.49%{transform:translate(0px,80px)}3.86%{transform:translate(64px,80px)}4.15%{transform:translate(64px,96px)}5.93%{transform:translate(160px,96px)}6.23%,51.93%{transform:translate(160px,80px)}6.53%{transform:translate(176px,80px)}6.82%,61.42%{transform:translate(176px,64px)}7.12%{transform:translate(192px,64px)}7.42%,62.02%{transform:translate(192px,48px)}7.72%{transform:translate(208px,48px)}8.31%{transform:translate(208px,16px)}9.2%,50.74%{transform:translate(160px,16px)}9.5%,47.48%{transform:translate(160px,32px)}10.68%,64.09%{transform:translate(96px,32px)}10.98%{transform:translate(96px,16px)}11.28%{transform:translate(80px,16px)}12.76%{transform:translate(80px,96px)}19.29%{transform:translate(432px,96px)}19.88%{transform:translate(432px,64px)}20.47%{transform:translate(464px,64px)}20.77%{transform:translate(464px,80px)}21.66%{transform:translate(512px,80px)}22.55%{transform:translate(512px,32px)}22.85%{transform:translate(528px,32px)}23.44%{transform:translate(528px,0px)}24.33%,40.95%{transform:translate(480px,0px)}24.63%,41.25%,72.7%{transform:translate(480px,16px)}24.93%{transform:translate(464px,16px)}25.52%{transform:translate(464px,48px)}27.3%{transform:translate(560px,48px)}28.19%{transform:translate(560px,96px)}32.64%{transform:translate(800px,96px)}33.23%{transform:translate(800px,64px)}33.53%,79.82%{transform:translate(816px,64px)}34.42%{transform:translate(816px,16px)}40.06%{transform:translate(512px,16px)}40.36%{transform:translate(512px,0px)}46.88%,50.45%{transform:translate(176px,16px)}47.18%{transform:translate(176px,32px)}47.77%{transform:translate(160px,48px)}48.07%{transform:translate(144px,48px)}49.26%{transform:translate(144px,-16px)}49.85%{transform:translate(176px,-16px)}52.23%{transform:translate(144px,80px)}52.52%{transform:translate(144px,96px)}55.19%{transform:translate(0px,96px)}55.79%{transform:translate(16px,80px)}56.68%{transform:translate(16px,32px)}56.97%{transform:translate(32px,32px)}58.16%{transform:translate(32px,96px)}59.64%{transform:translate(112px,96px)}60.24%,95.25%{transform:translate(112px,64px)}61.72%{transform:translate(176px,48px)}62.31%{transform:translate(192px,32px)}64.39%{transform:translate(96px,48px)}71.81%{transform:translate(496px,48px)}72.4%{transform:translate(496px,16px)}73.59%{transform:translate(480px,64px)}80.12%{transform:translate(816px,80px)}80.42%{transform:translate(832px,80px)}80.71%{transform:translate(832px,64px)}93.77%{transform:translate(128px,64px)}94.07%{transform:translate(128px,80px)}94.66%{transform:translate(96px,80px)}94.96%{transform:translate(96px,64px)}96.14%{transform:translate(112px,16px)}96.44%{transform:translate(128px,16px)}96.74%{transform:translate(128px,0px)}97.33%{transform:translate(160px,0px)}97.63%{transform:translate(160px,-16px)}}.s.s3{transform:translate(48px,-16px);animation-name:s3}</style><rect class="c" x="2" y="2" rx="2" ry="2"></rect><rect class="c" x="2" y="18" rx="2" ry="2"></rect><rect class="c" x="2" y="34" rx="2" ry="2"></rect><rect class="c" x="2" y="50" rx="2" ry="2"></rect><rect class="c" x="2" y="66" rx="2" ry="2"></rect><rect class="c c0" x="2" y="82" rx="2" ry="2"></rect><rect class="c c1" x="2" y="98" rx="2" ry="2"></rect><rect class="c" x="18" y="2" rx="2" ry="2"></rect><rect class="c" x="18" y="18" rx="2" ry="2"></rect><rect class="c c2" x="18" y="34" rx="2" ry="2"></rect><rect class="c" x="18" y="50" rx="2" ry="2"></rect><rect class="c" x="18" y="66" rx="2" ry="2"></rect><rect class="c" x="18" y="82" rx="2" ry="2"></rect><rect class="c" x="18" y="98" rx="2" ry="2"></rect><rect class="c" x="34" y="2" rx="2" ry="2"></rect><rect class="c" x="34" y="18" rx="2" ry="2"></rect><rect class="c" x="34" y="34" rx="2" ry="2"></rect><rect class="c" x="34" y="50" rx="2" ry="2"></rect><rect class="c" x="34" y="66" rx="2" ry="2"></rect><rect class="c" x="34" y="82" rx="2" ry="2"></rect><rect class="c" x="34" y="98" rx="2" ry="2"></rect><rect class="c" x="50" y="2" rx="2" ry="2"></rect><rect class="c" x="50" y="18" rx="2" ry="2"></rect><rect class="c" x="50" y="34" rx="2" ry="2"></rect><rect class="c" x="50" y="50" rx="2" ry="2"></rect><rect class="c" x="50" y="66" rx="2" ry="2"></rect><rect class="c" x="50" y="82" rx="2" ry="2"></rect><rect class="c" x="50" y="98" rx="2" ry="2"></rect><rect class="c" x="66" y="2" rx="2" ry="2"></rect><rect class="c" x="66" y="18" rx="2" ry="2"></rect><rect class="c" x="66" y="34" rx="2" ry="2"></rect><rect class="c" x="66" y="50" rx="2" ry="2"></rect><rect class="c" x="66" y="66" rx="2" ry="2"></rect><rect class="c" x="66" y="82" rx="2" ry="2"></rect><rect class="c c3" x="66" y="98" rx="2" ry="2"></rect><rect class="c" x="82" y="2" rx="2" ry="2"></rect><rect class="c c4" x="82" y="18" rx="2" ry="2"></rect><rect class="c" x="82" y="34" rx="2" ry="2"></rect><rect class="c" x="82" y="50" rx="2" ry="2"></rect><rect class="c" x="82" y="66" rx="2" ry="2"></rect><rect class="c" x="82" y="82" rx="2" ry="2"></rect><rect class="c" x="82" y="98" rx="2" ry="2"></rect><rect class="c" x="98" y="2" rx="2" ry="2"></rect><rect class="c c5" x="98" y="18" rx="2" ry="2"></rect><rect class="c" x="98" y="34" rx="2" ry="2"></rect><rect class="c c6" x="98" y="50" rx="2" ry="2"></rect><rect class="c" x="98" y="66" rx="2" ry="2"></rect><rect class="c c7" x="98" y="82" rx="2" ry="2"></rect><rect class="c" x="98" y="98" rx="2" ry="2"></rect><rect class="c" x="114" y="2" rx="2" ry="2"></rect><rect class="c c8" x="114" y="18" rx="2" ry="2"></rect><rect class="c" x="114" y="34" rx="2" ry="2"></rect><rect class="c" x="114" y="50" rx="2" ry="2"></rect><rect class="c c9" x="114" y="66" rx="2" ry="2"></rect><rect class="c ca" x="114" y="82" rx="2" ry="2"></rect><rect class="c" x="114" y="98" rx="2" ry="2"></rect><rect class="c cb" x="130" y="2" rx="2" ry="2"></rect><rect class="c" x="130" y="18" rx="2" ry="2"></rect><rect class="c" x="130" y="34" rx="2" ry="2"></rect><rect class="c" x="130" y="50" rx="2" ry="2"></rect><rect class="c" x="130" y="66" rx="2" ry="2"></rect><rect class="c cc" x="130" y="82" rx="2" ry="2"></rect><rect class="c cd" x="130" y="98" rx="2" ry="2"></rect><rect class="c ce" x="146" y="2" rx="2" ry="2"></rect><rect class="c cf" x="146" y="18" rx="2" ry="2"></rect><rect class="c cg" x="146" y="34" rx="2" ry="2"></rect><rect class="c ch" x="146" y="50" rx="2" ry="2"></rect><rect class="c ci" x="146" y="66" rx="2" ry="2"></rect><rect class="c" x="146" y="82" rx="2" ry="2"></rect><rect class="c" x="146" y="98" rx="2" ry="2"></rect><rect class="c cj" x="162" y="2" rx="2" ry="2"></rect><rect class="c" x="162" y="18" rx="2" ry="2"></rect><rect class="c ck" x="162" y="34" rx="2" ry="2"></rect><rect class="c cl" x="162" y="50" rx="2" ry="2"></rect><rect class="c cm" x="162" y="66" rx="2" ry="2"></rect><rect class="c cn" x="162" y="82" rx="2" ry="2"></rect><rect class="c" x="162" y="98" rx="2" ry="2"></rect><rect class="c" x="178" y="2" rx="2" ry="2"></rect><rect class="c" x="178" y="18" rx="2" ry="2"></rect><rect class="c" x="178" y="34" rx="2" ry="2"></rect><rect class="c co" x="178" y="50" rx="2" ry="2"></rect><rect class="c cp" x="178" y="66" rx="2" ry="2"></rect><rect class="c" x="178" y="82" rx="2" ry="2"></rect><rect class="c" x="178" y="98" rx="2" ry="2"></rect><rect class="c" x="194" y="2" rx="2" ry="2"></rect><rect class="c" x="194" y="18" rx="2" ry="2"></rect><rect class="c cq" x="194" y="34" rx="2" ry="2"></rect><rect class="c cr" x="194" y="50" rx="2" ry="2"></rect><rect class="c" x="194" y="66" rx="2" ry="2"></rect><rect class="c" x="194" y="82" rx="2" ry="2"></rect><rect class="c" x="194" y="98" rx="2" ry="2"></rect><rect class="c" x="210" y="2" rx="2" ry="2"></rect><rect class="c" x="210" y="18" rx="2" ry="2"></rect><rect class="c" x="210" y="34" rx="2" ry="2"></rect><rect class="c cs" x="210" y="50" rx="2" ry="2"></rect><rect class="c" x="210" y="66" rx="2" ry="2"></rect><rect class="c" x="210" y="82" rx="2" ry="2"></rect><rect class="c" x="210" y="98" rx="2" ry="2"></rect><rect class="c" x="226" y="2" rx="2" ry="2"></rect><rect class="c" x="226" y="18" rx="2" ry="2"></rect><rect class="c" x="226" y="34" rx="2" ry="2"></rect><rect class="c" x="226" y="50" rx="2" ry="2"></rect><rect class="c" x="226" y="66" rx="2" ry="2"></rect><rect class="c" x="226" y="82" rx="2" ry="2"></rect><rect class="c" x="226" y="98" rx="2" ry="2"></rect><rect class="c" x="242" y="2" rx="2" ry="2"></rect><rect class="c" x="242" y="18" rx="2" ry="2"></rect><rect class="c" x="242" y="34" rx="2" ry="2"></rect><rect class="c" x="242" y="50" rx="2" ry="2"></rect><rect class="c" x="242" y="66" rx="2" ry="2"></rect><rect class="c" x="242" y="82" rx="2" ry="2"></rect><rect class="c" x="242" y="98" rx="2" ry="2"></rect><rect class="c" x="258" y="2" rx="2" ry="2"></rect><rect class="c" x="258" y="18" rx="2" ry="2"></rect><rect class="c" x="258" y="34" rx="2" ry="2"></rect><rect class="c" x="258" y="50" rx="2" ry="2"></rect><rect class="c" x="258" y="66" rx="2" ry="2"></rect><rect class="c" x="258" y="82" rx="2" ry="2"></rect><rect class="c" x="258" y="98" rx="2" ry="2"></rect><rect class="c" x="274" y="2" rx="2" ry="2"></rect><rect class="c" x="274" y="18" rx="2" ry="2"></rect><rect class="c" x="274" y="34" rx="2" ry="2"></rect><rect class="c" x="274" y="50" rx="2" ry="2"></rect><rect class="c" x="274" y="66" rx="2" ry="2"></rect><rect class="c" x="274" y="82" rx="2" ry="2"></rect><rect class="c" x="274" y="98" rx="2" ry="2"></rect><rect class="c" x="290" y="2" rx="2" ry="2"></rect><rect class="c" x="290" y="18" rx="2" ry="2"></rect><rect class="c" x="290" y="34" rx="2" ry="2"></rect><rect class="c" x="290" y="50" rx="2" ry="2"></rect><rect class="c" x="290" y="66" rx="2" ry="2"></rect><rect class="c" x="290" y="82" rx="2" ry="2"></rect><rect class="c" x="290" y="98" rx="2" ry="2"></rect><rect class="c" x="306" y="2" rx="2" ry="2"></rect><rect class="c" x="306" y="18" rx="2" ry="2"></rect><rect class="c" x="306" y="34" rx="2" ry="2"></rect><rect class="c" x="306" y="50" rx="2" ry="2"></rect><rect class="c" x="306" y="66" rx="2" ry="2"></rect><rect class="c" x="306" y="82" rx="2" ry="2"></rect><rect class="c" x="306" y="98" rx="2" ry="2"></rect><rect class="c" x="322" y="2" rx="2" ry="2"></rect><rect class="c" x="322" y="18" rx="2" ry="2"></rect><rect class="c" x="322" y="34" rx="2" ry="2"></rect><rect class="c" x="322" y="50" rx="2" ry="2"></rect><rect class="c" x="322" y="66" rx="2" ry="2"></rect><rect class="c" x="322" y="82" rx="2" ry="2"></rect><rect class="c" x="322" y="98" rx="2" ry="2"></rect><rect class="c" x="338" y="2" rx="2" ry="2"></rect><rect class="c" x="338" y="18" rx="2" ry="2"></rect><rect class="c" x="338" y="34" rx="2" ry="2"></rect><rect class="c" x="338" y="50" rx="2" ry="2"></rect><rect class="c" x="338" y="66" rx="2" ry="2"></rect><rect class="c" x="338" y="82" rx="2" ry="2"></rect><rect class="c" x="338" y="98" rx="2" ry="2"></rect><rect class="c" x="354" y="2" rx="2" ry="2"></rect><rect class="c" x="354" y="18" rx="2" ry="2"></rect><rect class="c" x="354" y="34" rx="2" ry="2"></rect><rect class="c" x="354" y="50" rx="2" ry="2"></rect><rect class="c" x="354" y="66" rx="2" ry="2"></rect><rect class="c" x="354" y="82" rx="2" ry="2"></rect><rect class="c" x="354" y="98" rx="2" ry="2"></rect><rect class="c" x="370" y="2" rx="2" ry="2"></rect><rect class="c" x="370" y="18" rx="2" ry="2"></rect><rect class="c" x="370" y="34" rx="2" ry="2"></rect><rect class="c" x="370" y="50" rx="2" ry="2"></rect><rect class="c" x="370" y="66" rx="2" ry="2"></rect><rect class="c" x="370" y="82" rx="2" ry="2"></rect><rect class="c" x="370" y="98" rx="2" ry="2"></rect><rect class="c" x="386" y="2" rx="2" ry="2"></rect><rect class="c" x="386" y="18" rx="2" ry="2"></rect><rect class="c" x="386" y="34" rx="2" ry="2"></rect><rect class="c" x="386" y="50" rx="2" ry="2"></rect><rect class="c" x="386" y="66" rx="2" ry="2"></rect><rect class="c" x="386" y="82" rx="2" ry="2"></rect><rect class="c ct" x="386" y="98" rx="2" ry="2"></rect><rect class="c" x="402" y="2" rx="2" ry="2"></rect><rect class="c" x="402" y="18" rx="2" ry="2"></rect><rect class="c" x="402" y="34" rx="2" ry="2"></rect><rect class="c" x="402" y="50" rx="2" ry="2"></rect><rect class="c" x="402" y="66" rx="2" ry="2"></rect><rect class="c" x="402" y="82" rx="2" ry="2"></rect><rect class="c" x="402" y="98" rx="2" ry="2"></rect><rect class="c" x="418" y="2" rx="2" ry="2"></rect><rect class="c" x="418" y="18" rx="2" ry="2"></rect><rect class="c" x="418" y="34" rx="2" ry="2"></rect><rect class="c" x="418" y="50" rx="2" ry="2"></rect><rect class="c" x="418" y="66" rx="2" ry="2"></rect><rect class="c" x="418" y="82" rx="2" ry="2"></rect><rect class="c" x="418" y="98" rx="2" ry="2"></rect><rect class="c" x="434" y="2" rx="2" ry="2"></rect><rect class="c" x="434" y="18" rx="2" ry="2"></rect><rect class="c" x="434" y="34" rx="2" ry="2"></rect><rect class="c" x="434" y="50" rx="2" ry="2"></rect><rect class="c cu" x="434" y="66" rx="2" ry="2"></rect><rect class="c" x="434" y="82" rx="2" ry="2"></rect><rect class="c" x="434" y="98" rx="2" ry="2"></rect><rect class="c" x="450" y="2" rx="2" ry="2"></rect><rect class="c" x="450" y="18" rx="2" ry="2"></rect><rect class="c" x="450" y="34" rx="2" ry="2"></rect><rect class="c" x="450" y="50" rx="2" ry="2"></rect><rect class="c" x="450" y="66" rx="2" ry="2"></rect><rect class="c" x="450" y="82" rx="2" ry="2"></rect><rect class="c" x="450" y="98" rx="2" ry="2"></rect><rect class="c" x="466" y="2" rx="2" ry="2"></rect><rect class="c" x="466" y="18" rx="2" ry="2"></rect><rect class="c" x="466" y="34" rx="2" ry="2"></rect><rect class="c" x="466" y="50" rx="2" ry="2"></rect><rect class="c" x="466" y="66" rx="2" ry="2"></rect><rect class="c" x="466" y="82" rx="2" ry="2"></rect><rect class="c" x="466" y="98" rx="2" ry="2"></rect><rect class="c" x="482" y="2" rx="2" ry="2"></rect><rect class="c cv" x="482" y="18" rx="2" ry="2"></rect><rect class="c cw" x="482" y="34" rx="2" ry="2"></rect><rect class="c" x="482" y="50" rx="2" ry="2"></rect><rect class="c cx" x="482" y="66" rx="2" ry="2"></rect><rect class="c cy" x="482" y="82" rx="2" ry="2"></rect><rect class="c" x="482" y="98" rx="2" ry="2"></rect><rect class="c" x="498" y="2" rx="2" ry="2"></rect><rect class="c cz" x="498" y="18" rx="2" ry="2"></rect><rect class="c" x="498" y="34" rx="2" ry="2"></rect><rect class="c" x="498" y="50" rx="2" ry="2"></rect><rect class="c" x="498" y="66" rx="2" ry="2"></rect><rect class="c" x="498" y="82" rx="2" ry="2"></rect><rect class="c" x="498" y="98" rx="2" ry="2"></rect><rect class="c" x="514" y="2" rx="2" ry="2"></rect><rect class="c" x="514" y="18" rx="2" ry="2"></rect><rect class="c c10" x="514" y="34" rx="2" ry="2"></rect><rect class="c" x="514" y="50" rx="2" ry="2"></rect><rect class="c" x="514" y="66" rx="2" ry="2"></rect><rect class="c" x="514" y="82" rx="2" ry="2"></rect><rect class="c" x="514" y="98" rx="2" ry="2"></rect><rect class="c" x="530" y="2" rx="2" ry="2"></rect><rect class="c c11" x="530" y="18" rx="2" ry="2"></rect><rect class="c" x="530" y="34" rx="2" ry="2"></rect><rect class="c" x="530" y="50" rx="2" ry="2"></rect><rect class="c" x="530" y="66" rx="2" ry="2"></rect><rect class="c" x="530" y="82" rx="2" ry="2"></rect><rect class="c" x="530" y="98" rx="2" ry="2"></rect><rect class="c" x="546" y="2" rx="2" ry="2"></rect><rect class="c" x="546" y="18" rx="2" ry="2"></rect><rect class="c" x="546" y="34" rx="2" ry="2"></rect><rect class="c" x="546" y="50" rx="2" ry="2"></rect><rect class="c" x="546" y="66" rx="2" ry="2"></rect><rect class="c" x="546" y="82" rx="2" ry="2"></rect><rect class="c" x="546" y="98" rx="2" ry="2"></rect><rect class="c" x="562" y="2" rx="2" ry="2"></rect><rect class="c" x="562" y="18" rx="2" ry="2"></rect><rect class="c" x="562" y="34" rx="2" ry="2"></rect><rect class="c" x="562" y="50" rx="2" ry="2"></rect><rect class="c" x="562" y="66" rx="2" ry="2"></rect><rect class="c" x="562" y="82" rx="2" ry="2"></rect><rect class="c c12" x="562" y="98" rx="2" ry="2"></rect><rect class="c" x="578" y="2" rx="2" ry="2"></rect><rect class="c" x="578" y="18" rx="2" ry="2"></rect><rect class="c" x="578" y="34" rx="2" ry="2"></rect><rect class="c" x="578" y="50" rx="2" ry="2"></rect><rect class="c" x="578" y="66" rx="2" ry="2"></rect><rect class="c" x="578" y="82" rx="2" ry="2"></rect><rect class="c" x="578" y="98" rx="2" ry="2"></rect><rect class="c" x="594" y="2" rx="2" ry="2"></rect><rect class="c" x="594" y="18" rx="2" ry="2"></rect><rect class="c" x="594" y="34" rx="2" ry="2"></rect><rect class="c" x="594" y="50" rx="2" ry="2"></rect><rect class="c" x="594" y="66" rx="2" ry="2"></rect><rect class="c" x="594" y="82" rx="2" ry="2"></rect><rect class="c" x="594" y="98" rx="2" ry="2"></rect><rect class="c" x="610" y="2" rx="2" ry="2"></rect><rect class="c" x="610" y="18" rx="2" ry="2"></rect><rect class="c" x="610" y="34" rx="2" ry="2"></rect><rect class="c" x="610" y="50" rx="2" ry="2"></rect><rect class="c" x="610" y="66" rx="2" ry="2"></rect><rect class="c" x="610" y="82" rx="2" ry="2"></rect><rect class="c" x="610" y="98" rx="2" ry="2"></rect><rect class="c" x="626" y="2" rx="2" ry="2"></rect><rect class="c" x="626" y="18" rx="2" ry="2"></rect><rect class="c" x="626" y="34" rx="2" ry="2"></rect><rect class="c" x="626" y="50" rx="2" ry="2"></rect><rect class="c" x="626" y="66" rx="2" ry="2"></rect><rect class="c" x="626" y="82" rx="2" ry="2"></rect><rect class="c" x="626" y="98" rx="2" ry="2"></rect><rect class="c" x="642" y="2" rx="2" ry="2"></rect><rect class="c" x="642" y="18" rx="2" ry="2"></rect><rect class="c" x="642" y="34" rx="2" ry="2"></rect><rect class="c" x="642" y="50" rx="2" ry="2"></rect><rect class="c" x="642" y="66" rx="2" ry="2"></rect><rect class="c" x="642" y="82" rx="2" ry="2"></rect><rect class="c" x="642" y="98" rx="2" ry="2"></rect><rect class="c" x="658" y="2" rx="2" ry="2"></rect><rect class="c" x="658" y="18" rx="2" ry="2"></rect><rect class="c" x="658" y="34" rx="2" ry="2"></rect><rect class="c" x="658" y="50" rx="2" ry="2"></rect><rect class="c" x="658" y="66" rx="2" ry="2"></rect><rect class="c" x="658" y="82" rx="2" ry="2"></rect><rect class="c" x="658" y="98" rx="2" ry="2"></rect><rect class="c" x="674" y="2" rx="2" ry="2"></rect><rect class="c" x="674" y="18" rx="2" ry="2"></rect><rect class="c" x="674" y="34" rx="2" ry="2"></rect><rect class="c" x="674" y="50" rx="2" ry="2"></rect><rect class="c" x="674" y="66" rx="2" ry="2"></rect><rect class="c" x="674" y="82" rx="2" ry="2"></rect><rect class="c" x="674" y="98" rx="2" ry="2"></rect><rect class="c" x="690" y="2" rx="2" ry="2"></rect><rect class="c" x="690" y="18" rx="2" ry="2"></rect><rect class="c" x="690" y="34" rx="2" ry="2"></rect><rect class="c" x="690" y="50" rx="2" ry="2"></rect><rect class="c" x="690" y="66" rx="2" ry="2"></rect><rect class="c" x="690" y="82" rx="2" ry="2"></rect><rect class="c" x="690" y="98" rx="2" ry="2"></rect><rect class="c" x="706" y="2" rx="2" ry="2"></rect><rect class="c" x="706" y="18" rx="2" ry="2"></rect><rect class="c" x="706" y="34" rx="2" ry="2"></rect><rect class="c" x="706" y="50" rx="2" ry="2"></rect><rect class="c" x="706" y="66" rx="2" ry="2"></rect><rect class="c" x="706" y="82" rx="2" ry="2"></rect><rect class="c" x="706" y="98" rx="2" ry="2"></rect><rect class="c" x="722" y="2" rx="2" ry="2"></rect><rect class="c" x="722" y="18" rx="2" ry="2"></rect><rect class="c" x="722" y="34" rx="2" ry="2"></rect><rect class="c" x="722" y="50" rx="2" ry="2"></rect><rect class="c" x="722" y="66" rx="2" ry="2"></rect><rect class="c" x="722" y="82" rx="2" ry="2"></rect><rect class="c" x="722" y="98" rx="2" ry="2"></rect><rect class="c" x="738" y="2" rx="2" ry="2"></rect><rect class="c" x="738" y="18" rx="2" ry="2"></rect><rect class="c" x="738" y="34" rx="2" ry="2"></rect><rect class="c" x="738" y="50" rx="2" ry="2"></rect><rect class="c" x="738" y="66" rx="2" ry="2"></rect><rect class="c" x="738" y="82" rx="2" ry="2"></rect><rect class="c" x="738" y="98" rx="2" ry="2"></rect><rect class="c" x="754" y="2" rx="2" ry="2"></rect><rect class="c" x="754" y="18" rx="2" ry="2"></rect><rect class="c" x="754" y="34" rx="2" ry="2"></rect><rect class="c" x="754" y="50" rx="2" ry="2"></rect><rect class="c" x="754" y="66" rx="2" ry="2"></rect><rect class="c" x="754" y="82" rx="2" ry="2"></rect><rect class="c c13" x="754" y="98" rx="2" ry="2"></rect><rect class="c" x="770" y="2" rx="2" ry="2"></rect><rect class="c" x="770" y="18" rx="2" ry="2"></rect><rect class="c" x="770" y="34" rx="2" ry="2"></rect><rect class="c" x="770" y="50" rx="2" ry="2"></rect><rect class="c" x="770" y="66" rx="2" ry="2"></rect><rect class="c" x="770" y="82" rx="2" ry="2"></rect><rect class="c" x="770" y="98" rx="2" ry="2"></rect><rect class="c" x="786" y="2" rx="2" ry="2"></rect><rect class="c c14" x="786" y="18" rx="2" ry="2"></rect><rect class="c" x="786" y="34" rx="2" ry="2"></rect><rect class="c" x="786" y="50" rx="2" ry="2"></rect><rect class="c" x="786" y="66" rx="2" ry="2"></rect><rect class="c" x="786" y="82" rx="2" ry="2"></rect><rect class="c" x="786" y="98" rx="2" ry="2"></rect><rect class="c" x="802" y="2" rx="2" ry="2"></rect><rect class="c" x="802" y="18" rx="2" ry="2"></rect><rect class="c" x="802" y="34" rx="2" ry="2"></rect><rect class="c" x="802" y="50" rx="2" ry="2"></rect><rect class="c c15" x="802" y="66" rx="2" ry="2"></rect><rect class="c c16" x="802" y="82" rx="2" ry="2"></rect><rect class="c" x="802" y="98" rx="2" ry="2"></rect><rect class="c" x="818" y="2" rx="2" ry="2"></rect><rect class="c" x="818" y="18" rx="2" ry="2"></rect><rect class="c c17" x="818" y="34" rx="2" ry="2"></rect><rect class="c" x="818" y="50" rx="2" ry="2"></rect><rect class="c" x="818" y="66" rx="2" ry="2"></rect><rect class="c c18" x="818" y="82" rx="2" ry="2"></rect><rect class="c" x="818" y="98" rx="2" ry="2"></rect><rect class="c" x="834" y="2" rx="2" ry="2"></rect><rect class="c" x="834" y="18" rx="2" ry="2"></rect><rect class="c" x="834" y="34" rx="2" ry="2"></rect><rect class="c" x="834" y="50" rx="2" ry="2"></rect><rect class="c" x="834" y="66" rx="2" ry="2"></rect><rect class="c c19" x="834" y="82" rx="2" ry="2"></rect><rect class="u u0" height="12" width="443.0" x="0.0" y="144"></rect><rect class="u u1" height="12" width="111.2" x="442.4" y="144"></rect><rect class="u u2" height="12" width="19.0" x="553.0" y="144"></rect><rect class="u u3" height="12" width="111.2" x="571.5" y="144"></rect><rect class="u u4" height="12" width="166.5" x="682.1" y="144"></rect><rect class="s s0" x="0.8" y="0.8" width="14.4" height="14.4" rx="4.5" ry="4.5"></rect><rect class="s s1" x="1.8" y="1.8" width="12.3" height="12.3" rx="4.1" ry="4.1"></rect><rect class="s s2" x="2.6" y="2.6" width="10.8" height="10.8" rx="3.6" ry="3.6"></rect><rect class="s s3" x="3.0" y="3.0" width="9.9" height="9.9" rx="3.3" ry="3.3"></rect></svg>
